<?xml version="1.0" encoding="UTF-8" standalone="no"?>
<svg
   xmlns:dc="http://purl.org/dc/elements/1.1/"
   xmlns:cc="http://creativecommons.org/ns#"
   xmlns:rdf="http://www.w3.org/1999/02/22-rdf-syntax-ns#"
   xmlns:svg="http://www.w3.org/2000/svg"
   xmlns="http://www.w3.org/2000/svg"
   width="278.31183"
   height="111.36139"
   viewBox="0 0 73.63667 29.464368"
   version="1.1"
   id="svg8">
  <defs
     id="defs2" />
  <metadata
     id="metadata5">
    <rdf:RDF>
      <cc:Work
         rdf:about="">
        <dc:format>image/svg+xml</dc:format>
        <dc:type
           rdf:resource="http://purl.org/dc/dcmitype/StillImage" />
        <dc:title></dc:title>
      </cc:Work>
    </rdf:RDF>
  </metadata>
  <g
     transform="translate(-65.962902,-1.881809)"
     id="layer1">
    <g
       transform="matrix(0.17658729,-0.01544938,0.01544938,0.17658729,60.043111,8.3679336)"
       id="g3701"
       style="fill:#ffffff;fill-opacity:1">
      <path
         d="m 68.67,39.845 c 0.712,-3.741 0.216,-6.87 -1.473,-9.301 -0.454,-0.653 -0.996,-1.251 -1.619,-1.794 v -9.511 c 0,-1.654 -1.346,-3 -3,-3 H 59.537 C 58.19,11.957 54.566,9.272 49.675,9.272 c -4.891,0 -8.515,2.685 -9.862,6.967 h -3.041 c -1.654,0 -3,1.346 -3,3 v 9.511 c -0.624,0.543 -1.166,1.142 -1.619,1.794 -1.689,2.431 -2.185,5.56 -1.473,9.301 -0.09,1.249 -0.596,9.813 1.917,14.498 -0.415,1.3 -1.351,4.949 0.42,6.974 0.65,0.742 1.53,1.264 2.596,1.58 0.085,3.803 0.689,6.58 0.857,7.274 -0.199,3.63 -0.347,11.534 1.932,13.622 l 0.038,0.266 c 0.015,0.109 0.03,0.218 0.046,0.327 -1.149,0.008 -3.17,0.265 -4.249,1.833 -0.861,1.25 -0.877,2.981 -0.05,5.146 l 0.246,0.643 h 13.748 v -7.334 c 0.022,-0.174 0.086,-0.697 0.169,-1.451 1.277,-2.369 1.087,-5.987 0.89,-9.5 -0.072,-1.286 -0.141,-2.5 -0.145,-3.549 l 0.581,-6.065 0.578,5.969 c 0,1.145 -0.068,2.359 -0.141,3.645 -0.197,3.514 -0.387,7.131 0.89,9.5 0.083,0.754 0.147,1.277 0.169,1.451 v 7.334 H 64.92 l 0.246,-0.643 c 0.828,-2.164 0.811,-3.895 -0.05,-5.146 -1.079,-1.568 -3.1,-1.825 -4.249,-1.833 0.016,-0.109 0.031,-0.218 0.046,-0.327 l 0.038,-0.266 c 2.279,-2.088 2.131,-9.991 1.932,-13.622 0.168,-0.694 0.772,-3.471 0.857,-7.274 1.066,-0.316 1.944,-0.837 2.595,-1.581 1.771,-2.024 0.834,-5.673 0.419,-6.973 2.512,-4.685 2.006,-13.249 1.916,-14.498 z M 52.223,69.707 h 8.713 c -0.017,0.071 -0.027,0.111 -0.028,0.116 l -0.04,0.152 0.009,0.156 c 0.011,0.192 0.018,0.383 0.027,0.575 h -8.67 c 0.004,-0.243 0.017,-0.484 0.016,-0.728 z m -13.778,0.116 c -10e-4,-0.005 -0.012,-0.045 -0.028,-0.116 h 8.717 l -0.035,0.368 c 0,0.204 0.012,0.423 0.015,0.632 h -8.666 c 0.009,-0.192 0.017,-0.383 0.027,-0.575 l 0.009,-0.157 z M 32.674,40.037 h 4.525 v 1 h -4.576 c 0.018,-0.464 0.038,-0.813 0.051,-1 z m 6.476,11.778 c 0.007,-0.021 0.002,-0.041 0.007,-0.061 h 21.038 c 0.005,0.021 0,0.041 0.007,0.061 0.103,0.314 0.185,0.626 0.275,0.939 H 38.875 c 0.09,-0.313 0.172,-0.625 0.275,-0.939 z M 62.153,40.037 h 4.525 c 0.013,0.187 0.033,0.536 0.052,1 H 62.153 Z M 60.119,20.138 c 0,-0.658 -0.054,-1.287 -0.138,-1.898 h 2.597 c 0.551,0 1,0.449 1,1 v 8.124 c -1.374,-0.768 -2.997,-1.343 -4.826,-1.723 0.887,-1.503 1.367,-3.348 1.367,-5.503 z M 49.676,11.272 c 5.129,0 8.443,3.48 8.443,8.865 0,3.592 -1.489,6.042 -4.262,7.185 1.233,-1.332 2.016,-3.236 2.032,-5.358 0.374,-0.859 1.625,-4.343 -1.211,-7.125 -1.36,-1.335 -2.526,-1.862 -4.591,-1.862 -4.722,0 -5.626,2.874 -5.626,2.874 -2.024,2.001 -1.357,4.084 -0.925,4.964 -0.044,0.354 -0.075,0.714 -0.075,1.083 0,2.149 0.788,4.079 2.035,5.425 -2.773,-1.142 -4.262,-3.593 -4.262,-7.185 -0.002,-5.386 3.313,-8.866 8.442,-8.866 z m -3.953,8.825 c 0.825,-0.719 1.581,-1.702 1.824,-2.791 0.057,-0.042 0.116,-0.081 0.174,-0.121 0.58,0.783 2.795,1.624 5.496,1.832 0.422,0.833 0.674,1.818 0.674,2.88 0,2.951 -1.891,5.353 -4.216,5.353 -2.325,0 -4.216,-2.401 -4.216,-5.353 10e-4,-0.634 0.103,-1.235 0.264,-1.8 z m -9.95,-0.858 c 0,-0.551 0.449,-1 1,-1 h 2.597 c -0.083,0.611 -0.138,1.241 -0.138,1.898 0,2.155 0.48,4 1.367,5.502 -1.83,0.379 -3.452,0.955 -4.826,1.723 z m -1.976,12.447 c 1.908,-2.746 5.441,-3.833 8.069,-4.261 0.036,-0.006 0.064,-0.028 0.099,-0.038 0.145,0.14 0.303,0.268 0.458,0.397 v 0.026 c -0.005,0.217 0.053,0.543 0.363,0.86 0.737,0.755 3.592,1.848 6.885,1.848 h 0.074 c 3.23,0 6.083,-1.092 6.821,-1.848 0.31,-0.317 0.368,-0.643 0.363,-0.814 l -0.002,-0.072 c 0.156,-0.129 0.314,-0.257 0.459,-0.397 0.035,0.01 0.063,0.032 0.099,0.038 2.628,0.428 6.162,1.515 8.069,4.261 1.38,1.986 1.761,4.628 1.136,7.851 h -4.538 v -5.655 c 0,-0.552 -0.448,-1 -1,-1 -0.552,0 -1,0.448 -1,1 V 51.254 H 39.199 V 33.882 c 0,-0.552 -0.448,-1 -1,-1 -0.552,0 -1,0.448 -1,1 v 5.655 h -4.538 c -0.625,-3.223 -0.244,-5.865 1.136,-7.851 z m 1.823,29.09 c -0.44,-0.199 -0.813,-0.454 -1.097,-0.777 -1.037,-1.186 -0.337,-4.115 0.048,-5.244 h 1.745 c -0.432,2.117 -0.636,4.156 -0.696,6.021 z m 0.922,-7.021 H 34.544 C 34.541,53.749 34.541,53.741 34.537,53.734 32.6,50.555 32.517,44.472 32.604,41.537 h 4.594 v 9.827 c -0.257,0.803 -0.469,1.6 -0.656,2.391 z m 1.883,17.452 h 8.701 c 0.026,0.868 0.067,1.751 0.116,2.625 0.186,3.293 0.372,6.691 -0.694,8.536 H 39.811 C 39.792,82.358 39.78,82.34 39.761,82.33 38.797,81.873 38.208,76.807 38.425,71.207 Z m -2.54,16.145 c 0.601,-0.873 2.061,-0.967 2.66,-0.967 0.261,0 1.042,0.069 1.047,0.069 l 1.34,0.116 -0.275,-1.316 C 40.56,84.791 40.491,84.283 40.422,83.785 l -0.059,-0.417 h 5.959 c -0.079,0.695 -0.131,1.107 -0.132,1.112 l -0.003,1.958 h -1.89 c -0.276,0 -0.5,0.224 -0.5,0.5 0,0.276 0.224,0.5 0.5,0.5 h 1.889 l -10e-4,0.854 H 35.607 c 0.026,-0.348 0.096,-0.677 0.278,-0.94 z m 10.296,2.654 H 35.835 c -0.119,-0.396 -0.2,-0.812 -0.231,-1.214 h 10.58 z m 3.495,-31.865 c -0.741,0 -1.411,0.584 -1.573,1.451 l -0.921,9.615 h -8.874 c -0.415,-2.001 -1.527,-8.745 0.419,-15.953 h 21.896 c 1.94,7.193 0.832,13.948 0.419,15.953 H 52.173 L 51.235,59.5 C 51.087,58.725 50.417,58.141 49.676,58.141 Z M 63.518,90.006 H 53.171 v -1.214 h 10.578 c -0.031,0.402 -0.112,0.818 -0.231,1.214 z m -0.05,-2.654 c 0.182,0.264 0.252,0.593 0.277,0.94 H 53.171 v -0.854 h 1.885 c 0.276,0 0.5,-0.224 0.5,-0.5 0,-0.276 -0.224,-0.5 -0.5,-0.5 h -1.885 v -1.829 l -0.008,-0.128 c -10e-4,-0.005 -0.054,-0.417 -0.132,-1.112 h 5.959 l -0.059,0.417 c -0.069,0.498 -0.138,1.006 -0.235,1.469 l -0.276,1.315 1.34,-0.116 c 0.004,0 0.786,-0.069 1.047,-0.069 0.6,0 2.06,0.094 2.661,0.967 z m -3.877,-5.021 c -0.02,0.009 -0.031,0.027 -0.05,0.038 h -6.737 c -1.066,-1.845 -0.879,-5.243 -0.694,-8.536 0.048,-0.859 0.088,-1.741 0.113,-2.625 h 8.705 c 0.217,5.599 -0.372,10.665 -1.337,11.123 z M 64.83,59.998 c -0.284,0.324 -0.657,0.579 -1.097,0.778 -0.06,-1.865 -0.265,-3.904 -0.696,-6.021 h 1.744 c 0.387,1.126 1.091,4.052 0.049,5.243 z M 64.814,53.734 C 64.81,53.74 64.81,53.748 64.807,53.755 H 62.81 c -0.187,-0.792 -0.4,-1.589 -0.658,-2.394 v -9.824 h 4.595 c 0.088,2.935 0.007,9.014 -1.933,12.197 z"
         id="path3691"
         style="fill:#ffffff;fill-opacity:1" />
      <path
         d="m 44.736,41.09 h 9.88 c 0.276,0 0.5,-0.224 0.5,-0.5 v -4.925 c 0,-0.276 -0.224,-0.5 -0.5,-0.5 h -9.88 c -0.276,0 -0.5,0.224 -0.5,0.5 v 4.925 c 0,0.276 0.223,0.5 0.5,0.5 z m 0.5,-4.925 h 8.88 v 3.925 h -8.88 z"
         id="path3693"
         style="fill:#ffffff;fill-opacity:1" />
      <circle
         cx="52.498001"
         cy="38.126999"
         r="1"
         id="circle3695"
         style="fill:#ffffff;fill-opacity:1" />
      <circle
         cx="46.854"
         cy="43.786999"
         r="1"
         id="circle3697"
         style="fill:#ffffff;fill-opacity:1" />
      <path
         d="m 52.497,42.787 h -2.696 c -0.552,0 -1,0.448 -1,1 0,0.552 0.448,1 1,1 h 2.696 c 0.552,0 1,-0.448 1,-1 0,-0.552 -0.448,-1 -1,-1 z"
         id="path3699"
         style="fill:#ffffff;fill-opacity:1" />
    </g>
    <g
       id="g4601"
       transform="matrix(0.80226231,0,0,0.80226231,2.1082443,-108.84394)"
       style="fill:#ffffff;fill-opacity:1">
      <path
         style="fill:#ffffff;fill-opacity:1;stroke-width:0.03527778;stroke-miterlimit:4;stroke-dasharray:none"
         id="path3747"
         d="m 136.88567,153.9799 a 1.455788,1.455788 0 0 0 -1.03053,-1.77878 l -0.0377,-0.01 a 1.4514553,1.4514553 0 1 0 1.06821,1.78887 z m -1.699,0.59887 a 1.0181857,1.0181857 0 0 1 0.52705,-1.96698 l 0.0334,0.01 a 1.0182999,1.0182999 0 1 1 -0.55629,1.95914 z" />
      <path
         style="fill:#ffffff;fill-opacity:1;stroke-width:0.03527778;stroke-miterlimit:4;stroke-dasharray:none"
         id="path3749"
         d="m 151.34297,156.35557 -0.1256,-0.0339 a 1.4514612,1.4514612 0 1 0 -0.75133,2.804 l 0.12118,0.0329 a 1.4514553,1.4514553 0 0 0 0.74908,-2.79562 z m -0.68299,2.36479 -0.0586,-0.0147 a 1.0398486,1.0398486 0 0 1 -0.74091,-1.2526 1.018185,1.018185 0 0 1 1.24701,-0.71997 l 0.0879,0.0241 a 1.018185,1.018185 0 0 1 -0.52593,1.96279 z" />
      <path
         style="fill:#ffffff;fill-opacity:1;stroke-width:0.03527778;stroke-miterlimit:4;stroke-dasharray:none"
         id="path3751"
         d="m 146.01647,154.92387 a 1.4514553,1.4514553 0 1 0 0.88811,0.68651 1.4384572,1.4384572 0 0 0 -0.88811,-0.68651 z m 0.14247,2.28093 a 1.018185,1.018185 0 1 1 -0.25454,-1.86245 1.018185,1.018185 0 0 1 0.72836,1.24927 1.0355159,1.0355159 0 0 1 -0.47494,0.61736 z" />
      <path
         style="fill:#ffffff;fill-opacity:1;stroke-width:0.07055556;stroke-miterlimit:4;stroke-dasharray:none"
         id="path3753"
         d="m 170.02051,162.63411 c 0.48678,-2.2067 -0.59299,-4.46112 -2.6175,-5.46502 l 0.62686,-2.33945 -3.17649,-0.85113 -0.60217,2.24738 -4.32735,-1.15951 c -1.47626,-0.39224 -3.05095,-0.0788 -4.26444,0.84893 l -0.17995,-0.0483 c -0.58598,-1.41095 -1.79343,-2.47018 -3.26868,-2.86741 l -3.59915,-0.96439 0.38463,-1.4355 2.03813,0.54613 0.38683,-1.44366 2.59382,-9.68027 -7.48291,-2.00502 -2.98064,11.12392 2.03814,0.54611 -0.38466,1.43547 -6.08926,-1.63161 c -1.75169,-0.47069 -3.62014,0.0638 -4.85791,1.38966 -1.73349,0.76893 -2.31553,2.94117 -1.19874,4.47382 0.40901,1.76711 1.75988,3.16421 3.51223,3.63243 l 6.08928,1.63161 -0.41275,1.54011 -2.03814,-0.54611 -2.98063,11.12392 7.49128,2.00727 2.98065,-11.12392 -2.03813,-0.54611 0.41379,-1.5443 3.59917,0.96441 c 1.47624,0.39292 3.05122,0.0794 4.26444,-0.84893 l 0.17995,0.0483 c 0.58653,1.41055 1.79375,2.46956 3.26867,2.86739 l 4.31899,1.15728 -0.60331,2.25159 3.17648,0.85112 0.62684,-2.33946 c 2.25523,0.14285 4.31754,-1.26964 4.99933,-3.42408 l 1.36014,0.36437 0.11217,-0.41848 z m -4.86074,-8.12495 2.33946,0.62685 -0.49004,1.82888 -2.33949,-0.62684 z m -14.78489,-15.01399 3.11787,0.83545 -0.8388,3.13043 -3.11788,-0.83545 z m -0.95655,3.56986 3.11788,0.83543 -0.84439,3.15136 -3.11788,-0.83543 z m -0.95653,3.56987 3.11786,0.83543 -0.84328,3.14717 -3.11786,-0.83543 z m 0.12429,3.855 -0.38463,1.43547 -2.578,-0.69077 0.38464,-1.43548 z m -1.73507,-11.93891 3.11789,0.8354 -0.83881,3.13043 -3.13041,-0.83879 z m -0.95653,3.56984 3.11786,0.83543 -0.84439,3.15135 -3.13044,-0.83879 z m -1.79984,6.71703 0.84329,-3.14716 3.11788,0.83543 -0.84328,3.14717 z m -10.65774,6.29476 c -0.98357,-1.32132 -0.47631,-3.21448 1.03614,-3.867 0.52775,-0.22976 1.11845,-0.27104 1.67303,-0.11693 0.37694,0.10032 0.72464,0.2888 1.01442,0.54991 0.40763,0.35203 0.69115,0.8259 0.80861,1.35153 0.01,0.0355 0.0165,0.0718 0.0203,0.1084 v 0 c 0.13686,0.74631 -0.069,1.51462 -0.5607,2.09251 -0.0251,0.032 -0.0526,0.0621 -0.0824,0.0899 -0.3581,0.39291 -0.83068,0.66328 -1.35088,0.77286 -0.97318,0.18823 -1.96871,-0.19334 -2.56677,-0.9838 z m 6.87631,-0.2343 c -0.36472,1.33603 -1.72416,2.14128 -3.07109,1.81911 l -0.94164,-0.25233 c 0.51864,-0.14288 0.98827,-0.42503 1.35794,-0.81586 0.0397,-0.0382 0.0762,-0.0794 0.10939,-0.12331 0.57314,-0.67558 0.81344,-1.57241 0.65487,-2.44405 -0.007,-0.0532 -0.0187,-0.10577 -0.0341,-0.15721 -0.12592,-0.52311 -0.39351,-1.00143 -0.7734,-1.38246 l 0.94584,0.25342 c 1.32434,0.39348 2.0991,1.7652 1.75233,3.10253 z m -6.58352,1.13362 c 0.29293,0.20836 0.62057,0.36298 0.96763,0.45665 l 2.42318,0.64927 c 3.83818,1.01894 5.3787,-4.73036 1.54526,-5.76702 l -2.4148,-0.64703 c -0.34459,-0.0922 -0.70301,-0.12133 -1.05796,-0.086 3.41172,-2.50943 8.07736,0.67836 6.98147,4.76832 -1.0959,4.08997 -6.73036,4.51786 -8.43029,0.63878 z m 7.14789,17.2334 -3.11786,-0.83543 0.8388,-3.13042 3.11786,0.83543 z m 0.95656,-3.56984 -3.11789,-0.83545 0.84442,-3.15136 3.11788,0.83544 z m 0.95655,-3.56988 -3.11786,-0.83543 0.84327,-3.14717 3.11786,0.83543 z m -0.12429,-3.85498 0.41381,-1.54429 2.578,0.69076 -0.41381,1.5443 z m 1.73509,11.93891 -3.10532,-0.83205 0.83879,-3.13044 3.11786,0.83543 z m 0.95652,-3.56985 -3.10529,-0.83206 0.8444,-3.15138 3.11786,0.83545 z m 1.79423,-6.69612 -0.8433,3.14719 -3.10529,-0.83208 0.84887,-3.1681 z m 6.83403,-2.90557 c -0.0789,0.0776 -0.16114,0.14968 -0.25061,0.21544 -1.11496,0.89437 -2.58867,1.20549 -3.97,0.83812 l -11.14901,-2.98736 c 4.19301,-0.66533 5.61762,-5.98204 2.31903,-8.65474 l 9.3216,2.49773 1.84413,0.49414 c 1.37947,0.37133 2.50048,1.37595 3.02019,2.70663 0.0391,0.10464 0.0742,0.20829 0.10825,0.31607 0.49912,1.63521 0.0231,3.41191 -1.22678,4.57849 z m 0.32843,0.28088 c 1.34489,-1.26123 1.86553,-3.17198 1.34635,-4.94113 l 3.65357,0.97896 c 3.28313,0.8827 1.96214,5.81271 -1.32099,4.93001 l -3.65357,-0.97896 z m 0.30637,0.53066 3.22669,0.8646 c 3.8404,1.06334 5.44481,-4.69093 1.60826,-5.76808 l -3.26434,-0.87468 c 3.4424,-2.2475 7.8401,0.94034 6.77624,4.91072 -1.06387,3.97039 -6.46631,4.53228 -8.32376,0.86468 z m 9.31874,6.45319 -2.31013,-0.619 0.49675,-1.85397 2.33948,0.62685 z m 5.51518,-5.34923 c -0.72857,2.27313 -3.11148,3.57579 -5.41825,2.96198 l -4.61193,-1.23576 c 4.19298,-0.66536 5.61756,-5.98202 2.31901,-8.65472 l 4.64124,1.24361 c 2.30462,0.62181 3.71695,2.94139 3.21135,5.27426 l -3.18484,-0.85336 -0.11217,0.41847 z" />
    </g>
    <path
       style="fill:#2a55ff;stroke:#ffcc00;stroke-width:0.26458332;stroke-linecap:butt;stroke-linejoin:miter;stroke-miterlimit:4;stroke-dasharray:0.79375, 0.79375;stroke-dashoffset:0;stroke-opacity:1"
       d="m 75.283594,16.115663 30.714146,-0.19378"
       id="path4603" />
  </g>
</svg>
